<svg viewBox="0 0 114.03293000000001 69.86173469387755" xmlns:xlink="http://www.w3.org/1999/xlink" xmlns="http://www.w3.org/2000/svg" data-name="Layer 3" id="Layer_3" style="max-height: 500px" width="114.03293000000001" height="69.86173469387755">
  <defs>
    <style>
      .cls-1 {
        fill: #231f20;
      }

      .cls-2 {
        fill: #fff;
      }

      .cls-3 {
        fill: url(#radial-gradient);
      }

      .cls-4 {
        fill: #231f20;
      }

      .cls-5 {
        fill: #981b49;
      }
    </style>
    <radialGradient gradientUnits="userSpaceOnUse" gradientTransform="translate(-1.78 -18.35) scale(.86)" r="175.7" fy="87.97" fx="14.92" cy="87.97" cx="14.92" id="radial-gradient">
      <stop stop-color="#e07541" offset="0"/>
      <stop stop-color="#de6e3e" offset=".1"/>
      <stop stop-color="#da5b39" offset=".25"/>
      <stop stop-color="#da5a39" offset=".26"/>
      <stop stop-color="#d95939" offset=".26"/>
      <stop stop-color="#d23b41" offset=".37"/>
      <stop stop-color="#ce2847" offset=".47"/>
      <stop stop-color="#cd2249" offset=".53"/>
      <stop stop-color="#a42e60" offset=".74"/>
    </radialGradient>
  </defs>
  <g>
    <g>
      <path d="M102.46.29c4.18-1.05,7.97,2.75,6.9,6.93l-14.92,58.27c-.02.08-.06.15-.08.23h.01s19.26-53.05,19.26-53.05c2.58-7.11-3.84-14.2-11.16-12.37Z" class="cls-5"/>
      <path d="M102.41.3L21.71,21.28c-1.87.49-4.35,2.14-5.52,3.68L.6,45.53c-1.17,1.54-.58,3.13,1.31,3.54l17.61,3.81c-.7-.45-1.34-.97-1.9-1.57-1.06-1.12-1.86-2.47-2.38-4.04-.52-1.57-.7-3.29-.54-5.18.17-1.93.66-3.68,1.47-5.25.81-1.57,1.85-2.9,3.14-4,1.28-1.1,2.75-1.95,4.39-2.54,1.65-.59,3.39-.89,5.24-.89,1.71,0,3.36.3,4.96.9,1.6.6,2.86,1.48,3.79,2.64l-4.31,3.95c-.48-.75-1.15-1.3-2.01-1.67-.86-.36-1.75-.55-2.69-.55-1.03,0-1.98.19-2.87.56-.89.38-1.67.89-2.34,1.55-.67.66-1.22,1.44-1.64,2.33-.42.9-.68,1.88-.77,2.95-.1,1.09-.01,2.09.25,3,.26.91.67,1.69,1.21,2.33.55.65,1.23,1.15,2.04,1.52.81.36,1.72.55,2.72.55,1.16,0,2.2-.23,3.1-.68.91-.45,1.65-1.04,2.24-1.77l3.73,3.81c-1.18,1.23-2.59,2.2-4.22,2.91-1.2.53-2.52.86-3.95.99l29.66,6.42.85-3.88c.27.09.56.16.89.22.32.06.63.09.9.09.87,0,1.51-.2,1.93-.6.42-.4.8-.96,1.14-1.69l.67-1.4-5.65-16.69h6.22l2.84,10.9h.1l4.34-10.9h5.95l-9.33,19.52c-.42.89-.87,1.67-1.35,2.37-.48.69-1.04,1.28-1.66,1.77-.62.49-1.34.86-2.15,1.11-.29.09-.6.16-.92.21l27.51,5.95c1.89.41,3.82-.79,4.3-2.66l14.92-58.27c1.08-4.2-2.75-8.01-6.94-6.92ZM43.05,54.19h-5.61l1.48-16.96h5.61l-1.48,16.96ZM45.06,33.02c-.2.37-.46.7-.77.97-.31.27-.67.49-1.08.65-.41.16-.84.24-1.27.24-.91,0-1.65-.3-2.21-.9-.56-.6-.81-1.32-.73-2.16.04-.41.15-.8.34-1.17.19-.38.45-.7.77-.97.32-.27.68-.49,1.08-.66.4-.17.83-.26,1.29-.26.43,0,.84.08,1.23.24.39.16.71.38.97.65.26.27.46.6.6.97.14.37.19.78.15,1.21-.04.43-.16.83-.36,1.21ZM57.77,41.38h-4l-.57,6.5c-.07.8.03,1.4.3,1.79.27.4.81.6,1.61.6.27,0,.57-.02.88-.07.31-.05.57-.11.79-.2l-.29,4.09c-.4.14-.9.26-1.5.36-.6.1-1.2.15-1.79.15-1.14,0-2.08-.14-2.83-.43-.75-.28-1.34-.69-1.76-1.23-.42-.53-.7-1.17-.84-1.91-.14-.74-.17-1.57-.09-2.48l.63-7.17h-2.74l.36-4.16h2.7l.39-4.46h5.5l-.39,4.46h4l-.36,4.16ZM99.38,45.09c-.13,1.45-.49,2.78-1.08,3.97-.59,1.19-1.38,2.21-2.37,3.07-.99.85-2.14,1.52-3.47,1.99-1.33.48-2.78.71-4.35.71s-3.01-.24-4.25-.71c-1.23-.48-2.26-1.14-3.07-1.99-.81-.85-1.41-1.87-1.78-3.07-.37-1.19-.5-2.51-.37-3.97l1.31-15.02h5.81l-1.27,14.54c-.06.66-.03,1.28.09,1.87.12.59.33,1.12.65,1.58.31.47.75.83,1.31,1.11.56.27,1.25.41,2.07.41s1.53-.14,2.14-.41c.61-.27,1.11-.64,1.52-1.11.41-.46.71-.99.92-1.58.21-.59.35-1.22.4-1.87l1.27-14.54h5.85l-1.31,15.02Z" class="cls-3"/>
    </g>
    <path d="M57.85,61.17l.85-3.88c.27.09.56.16.89.22.32.06.63.09.9.09.87,0,1.51-.2,1.93-.6.42-.4.8-.96,1.14-1.69l.67-1.4-5.65-16.69h6.22l2.84,10.9h.1l4.34-10.9h5.95l-9.33,19.52c-.42.89-.87,1.67-1.35,2.37-.48.69-1.04,1.28-1.66,1.77-.62.49-1.34.86-2.15,1.11-.29.09-.6.16-.92.21l-4.76-1.03ZM19.52,52.88c-.7-.45-1.34-.97-1.9-1.57-1.06-1.12-1.86-2.47-2.38-4.04-.52-1.57-.7-3.29-.54-5.18.17-1.93.66-3.68,1.47-5.25.81-1.57,1.85-2.9,3.14-4,1.28-1.1,2.75-1.95,4.39-2.54,1.65-.59,3.39-.89,5.24-.89,1.71,0,3.36.3,4.96.9,1.6.6,2.86,1.48,3.79,2.64l-4.31,3.95c-.48-.75-1.15-1.3-2.01-1.67-.86-.36-1.75-.55-2.69-.55-1.03,0-1.98.19-2.87.56-.89.38-1.67.89-2.34,1.55-.67.66-1.22,1.44-1.64,2.33-.42.9-.68,1.88-.77,2.95-.1,1.09-.01,2.09.25,3,.26.91.67,1.69,1.21,2.33.55.65,1.23,1.15,2.04,1.52.81.36,1.72.55,2.72.55,1.16,0,2.2-.23,3.1-.68.91-.45,1.65-1.04,2.24-1.77l3.73,3.81c-1.18,1.23-2.59,2.2-4.22,2.91-1.2.53-2.52.86-3.95.99l-8.67-1.87ZM43.05,54.19h-5.61l1.48-16.96h5.61l-1.48,16.96ZM45.06,33.02c-.2.37-.46.7-.77.97-.31.27-.67.49-1.08.65-.41.16-.84.24-1.27.24-.91,0-1.65-.3-2.21-.9-.56-.6-.81-1.32-.73-2.16.04-.41.15-.8.34-1.17.19-.38.45-.7.77-.97.32-.27.68-.49,1.08-.66.4-.17.83-.26,1.29-.26.43,0,.84.08,1.23.24.39.16.71.38.97.65.26.27.46.6.6.97.14.37.19.78.15,1.21-.04.43-.16.83-.36,1.21ZM57.77,41.38h-4l-.57,6.5c-.07.8.03,1.4.3,1.79.27.4.81.6,1.61.6.27,0,.57-.02.88-.07.31-.05.57-.11.79-.2l-.29,4.09c-.4.14-.9.26-1.5.36-.6.1-1.2.15-1.79.15-1.14,0-2.08-.14-2.83-.43-.75-.28-1.34-.69-1.76-1.23-.42-.53-.7-1.17-.84-1.91-.14-.74-.17-1.57-.09-2.48l.63-7.17h-2.74l.36-4.16h2.7l.39-4.46h5.5l-.39,4.46h4l-.36,4.16ZM99.38,45.09c-.13,1.45-.49,2.78-1.08,3.97-.59,1.19-1.38,2.21-2.37,3.07-.99.85-2.14,1.52-3.47,1.99-1.33.48-2.78.71-4.35.71s-3.01-.24-4.25-.71c-1.23-.48-2.26-1.14-3.07-1.99-.81-.85-1.41-1.87-1.78-3.07-.37-1.19-.5-2.51-.37-3.97l1.31-15.02h5.81l-1.27,14.54c-.06.66-.03,1.28.09,1.87.12.59.33,1.12.65,1.58.31.47.75.83,1.31,1.11.56.27,1.25.41,2.07.41s1.53-.14,2.14-.41c.61-.27,1.11-.64,1.52-1.11.41-.46.71-.99.92-1.58.21-.59.35-1.22.4-1.87l1.27-14.54h5.85l-1.31,15.02Z" class="cls-2"/>
  </g>
  <g>
    <g>
      <path d="M127.09,23.14v12.86h-1.58v-12.86h1.58Z" class="cls-4"/>
      <path d="M137.91,29.28v6.72h-1.55v-6.68c0-1.3-.85-2.18-2.21-2.18-1.08,0-1.98.52-2.72,1.55v7.31h-1.55v-9.63h1.55v1.22c.72-.95,1.82-1.42,3.31-1.42,2.03,0,3.17,1.12,3.17,3.12Z" class="cls-4"/>
      <path d="M139.53,33.76l.74-.43c.61,1.24,1.64,1.87,3.08,1.87s2.3-.72,2.3-1.8c0-.56-.22-.94-.63-1.17-.42-.23-1.15-.47-2.2-.7-.74-.16-1.19-.32-1.91-.7-.7-.41-1.1-1.12-1.1-2.05,0-1.66,1.3-2.59,3.24-2.59,1.76,0,2.99.72,3.67,2.16l-.74.43c-.67-1.13-1.4-1.62-2.68-1.62s-1.91.45-1.91,1.37c0,.5.31.92.58,1.13.13.11.34.22.61.31.56.16.61.2,1.17.29,2.21.43,3.47,1.13,3.47,2.92,0,.99-.36,1.73-1.1,2.25-.72.5-1.62.76-2.7.76-2.02,0-3.35-.95-3.91-2.41Z" class="cls-4"/>
      <path d="M148.11,26.36h1.24v-2.58h1.55v2.58h2.47v.95h-2.47v5.96c0,1.44.31,1.89,1.22,1.89.36,0,.79-.16,1.28-.47l.43.7c-.5.52-1.21.77-2.09.77-1.6,0-2.39-.97-2.39-2.92v-5.94h-1.24v-.95Z" class="cls-4"/>
      <path d="M156.02,22.96c.5,0,.9.41.9.9s-.4.9-.9.9-.92-.4-.92-.9.41-.9.92-.9ZM155.24,26.36h1.55v9.63h-1.55v-9.63Z" class="cls-4"/>
      <path d="M158.44,26.36h1.24v-2.58h1.55v2.58h2.47v.95h-2.47v5.96c0,1.44.31,1.89,1.22,1.89.36,0,.79-.16,1.28-.47l.43.7c-.5.52-1.21.77-2.09.77-1.6,0-2.39-.97-2.39-2.92v-5.94h-1.24v-.95Z" class="cls-4"/>
      <path d="M173.59,26.36v9.63h-1.55v-1.23c-.72.95-1.82,1.42-3.31,1.42-2.04,0-3.17-1.12-3.17-3.11v-6.72h1.55v6.68c0,1.3.85,2.18,2.21,2.18,1.08,0,1.98-.52,2.72-1.55v-7.31h1.55Z" class="cls-4"/>
      <path d="M175.24,26.36h1.24v-2.58h1.55v2.58h2.47v.95h-2.47v5.96c0,1.44.31,1.89,1.22,1.89.36,0,.79-.16,1.28-.47l.43.7c-.5.52-1.21.77-2.09.77-1.6,0-2.39-.97-2.39-2.92v-5.94h-1.24v-.95Z" class="cls-4"/>
      <path d="M183.14,22.96c.5,0,.9.41.9.9s-.4.9-.9.9-.92-.4-.92-.9.41-.9.92-.9ZM182.37,26.36h1.55v9.63h-1.55v-9.63Z" class="cls-4"/>
      <path d="M187.17,27.6c.92-.95,2.07-1.42,3.46-1.42s2.54.47,3.46,1.42c.92.94,1.37,2.12,1.37,3.57s-.45,2.65-1.37,3.6c-.92.94-2.07,1.4-3.46,1.4s-2.54-.47-3.46-1.4c-.92-.95-1.37-2.14-1.37-3.6s.45-2.63,1.37-3.57ZM192.92,34.01c.63-.81.96-1.75.96-2.84s-.32-2.04-.96-2.83c-.63-.79-1.39-1.19-2.29-1.19s-1.64.4-2.27,1.19c-.63.79-.95,1.73-.97,2.83.02,1.1.34,2.03.97,2.84.63.79,1.39,1.19,2.27,1.19s1.66-.4,2.29-1.19Z" class="cls-4"/>
      <path d="M205.37,29.28v6.72h-1.55v-6.68c0-1.3-.85-2.18-2.21-2.18-1.08,0-1.98.52-2.72,1.55v7.31h-1.55v-9.63h1.55v1.22c.72-.95,1.82-1.42,3.31-1.42,2.03,0,3.17,1.12,3.17,3.12Z" class="cls-4"/>
      <path d="M207.15,33.27c0-.9.32-1.62.95-2.18.63-.56,1.48-.83,2.5-.83.88,0,1.89.27,2.38.47l.34.16v-1.46c0-1.44-.81-2.29-2.11-2.29-1.49,0-2.48,1.15-2.75,1.6l-.11.2-.72-.49c.88-1.53,2.21-2.29,4.03-2.29,2.14,0,3.21,1.12,3.21,3.35v6.46h-1.55v-.69l-.05.04c-.27.2-1.24.85-2.75.85-2.07,0-3.37-1.17-3.37-2.92ZM213.06,34.64l.27-.2v-2.77c-.7-.29-1.44-.43-2.18-.43-1.51,0-2.45.81-2.45,2.02s.92,1.96,2.29,1.96c.81,0,1.69-.31,2.07-.58Z" class="cls-4"/>
      <path d="M218.15,35.53c-.47-.45-.7-1.13-.7-2.07v-11.15h1.55v10.93c0,1.35.58,1.84,1.28,1.84.27,0,.45-.05.58-.14l.34.76c-.34.32-.83.49-1.44.49s-1.12-.22-1.6-.65Z" class="cls-4"/>
      <path d="M227.33,23.14h4.81c1.19,0,2.14.34,2.88,1.01s1.12,1.57,1.12,2.7c0,1.67-.9,2.92-2.5,3.37l3.12,5.78h-1.8l-2.99-5.55h-3.04v5.55h-1.59v-12.86ZM232.14,29.46c1.53,0,2.39-.86,2.39-2.5,0-1.73-.96-2.84-2.47-2.84h-3.15v5.35h3.22Z" class="cls-4"/>
      <path d="M245.48,33.78l.68.45c-.88,1.3-2.16,1.94-3.84,1.94-1.46,0-2.66-.47-3.6-1.39-.94-.94-1.4-2.11-1.4-3.53s.45-2.61,1.35-3.6c.92-.99,2.02-1.48,3.31-1.48s2.29.45,3.15,1.37c.87.9,1.3,2.12,1.3,3.66h-7.53c0,1.75.95,4,3.71,4,1.15,0,1.93-.41,2.86-1.42ZM240.13,28.03c-.58.59-.96,1.31-1.13,2.2h5.87c-.02-.77-.32-1.49-.88-2.12-.56-.63-1.21-.95-1.94-.95s-1.33.29-1.91.88Z" class="cls-4"/>
      <path d="M247.38,33.76l.74-.43c.61,1.24,1.64,1.87,3.08,1.87s2.3-.72,2.3-1.8c0-.56-.21-.94-.63-1.17-.41-.23-1.15-.47-2.2-.7-.74-.16-1.19-.32-1.91-.7-.7-.41-1.1-1.12-1.1-2.05,0-1.66,1.3-2.59,3.24-2.59,1.76,0,2.99.72,3.67,2.16l-.74.43c-.67-1.13-1.4-1.62-2.68-1.62s-1.91.45-1.91,1.37c0,.5.3.92.58,1.13.12.11.34.22.61.31.56.16.61.2,1.17.29,2.21.43,3.47,1.13,3.47,2.92,0,.99-.36,1.73-1.1,2.25-.72.5-1.62.76-2.7.76-2.02,0-3.35-.95-3.91-2.41Z" class="cls-4"/>
      <path d="M264.36,33.78l.68.45c-.88,1.3-2.16,1.94-3.83,1.94-1.46,0-2.67-.47-3.6-1.39-.94-.94-1.4-2.11-1.4-3.53s.45-2.61,1.35-3.6c.92-.99,2.02-1.48,3.31-1.48s2.29.45,3.15,1.37c.86.9,1.3,2.12,1.3,3.66h-7.53c0,1.75.96,4,3.71,4,1.15,0,1.93-.41,2.86-1.42ZM259.01,28.03c-.58.59-.95,1.31-1.13,2.2h5.87c-.02-.77-.32-1.49-.88-2.12-.56-.63-1.21-.95-1.95-.95s-1.33.29-1.91.88Z" class="cls-4"/>
      <path d="M266.42,33.27c0-.9.32-1.62.96-2.18.63-.56,1.48-.83,2.5-.83.88,0,1.89.27,2.38.47l.34.16v-1.46c0-1.44-.81-2.29-2.11-2.29-1.49,0-2.49,1.15-2.76,1.6l-.11.2-.72-.49c.88-1.53,2.21-2.29,4.03-2.29,2.14,0,3.21,1.12,3.21,3.35v6.46h-1.55v-.69l-.05.04c-.27.2-1.24.85-2.76.85-2.07,0-3.37-1.17-3.37-2.92ZM272.33,34.64l.27-.2v-2.77c-.7-.29-1.44-.43-2.18-.43-1.51,0-2.45.81-2.45,2.02s.92,1.96,2.29,1.96c.81,0,1.69-.31,2.07-.58Z" class="cls-4"/>
      <path d="M276.65,26.36h1.55v1.22c.74-.88,1.96-1.4,3.04-1.4.81,0,1.48.25,2,.76l-.59.9c-.43-.43-1.01-.65-1.73-.65-.56,0-1.1.16-1.58.47-.49.31-.87.65-1.13,1.03v7.31h-1.55v-9.63Z" class="cls-4"/>
      <path d="M288.46,27.15c-1.1,0-1.98.4-2.61,1.17-.63.77-.94,1.71-.94,2.84s.31,2.03.9,2.84c.61.79,1.49,1.19,2.65,1.19s1.91-.43,2.83-1.42l.68.45c-.9,1.3-2.16,1.94-3.76,1.94-1.42,0-2.59-.47-3.51-1.42s-1.37-2.12-1.37-3.55.45-2.61,1.37-3.57c.92-.97,2.07-1.46,3.49-1.46,1.6,0,2.86.65,3.76,1.94l-.68.45c-.92-.99-1.71-1.42-2.81-1.42Z" class="cls-4"/>
      <path d="M301.8,29.28v6.72h-1.55v-6.68c0-1.3-.85-2.18-2.21-2.18-1.08,0-1.98.52-2.72,1.55v7.31h-1.55v-13.69h1.55v5.28c.72-.95,1.82-1.42,3.31-1.42,2.03,0,3.17,1.12,3.17,3.12Z" class="cls-4"/>
      <path d="M314.58,22.96c1.73,0,3.21.65,4.43,1.95,1.22,1.28,1.84,2.84,1.84,4.66s-.61,3.38-1.84,4.68c-1.22,1.28-2.7,1.93-4.43,1.93s-3.21-.65-4.43-1.93c-1.22-1.3-1.84-2.86-1.84-4.68s.61-3.38,1.84-4.66c1.22-1.3,2.7-1.95,4.43-1.95ZM317.89,33.56c.88-1.08,1.33-2.41,1.33-4s-.45-2.92-1.33-3.98c-.88-1.08-1.98-1.62-3.31-1.62s-2.45.54-3.33,1.62c-.88,1.06-1.31,2.39-1.31,3.98s.43,2.92,1.31,4c.88,1.06,1.98,1.6,3.33,1.6s2.43-.54,3.31-1.6Z" class="cls-4"/>
      <path d="M336.67,35.99h-1.55v-8.68h-4.14v8.68h-1.55v-8.68h-4.61v8.68h-1.55v-8.68h-1.26v-.95h1.26v-1.46c0-1.57.97-2.77,2.7-2.77,1.12,0,1.91.43,2.38,1.31l-.56.54c-.38-.58-.87-.86-1.46-.86-1.01,0-1.51.67-1.51,1.98v1.26h4.61v-1.46c0-1.57.97-2.77,2.7-2.77,1.12,0,1.91.43,2.38,1.31l-.56.54c-.38-.58-.86-.86-1.46-.86-1.01,0-1.51.67-1.51,1.98v1.26h5.69v9.63Z" class="cls-4"/>
      <path d="M343.67,27.15c-1.1,0-1.98.4-2.61,1.17-.63.77-.94,1.71-.94,2.84s.31,2.03.9,2.84c.61.79,1.49,1.19,2.65,1.19s1.91-.43,2.83-1.42l.69.45c-.9,1.3-2.16,1.94-3.76,1.94-1.42,0-2.59-.47-3.51-1.42s-1.37-2.12-1.37-3.55.45-2.61,1.37-3.57c.92-.97,2.07-1.46,3.49-1.46,1.6,0,2.86.65,3.76,1.94l-.68.45c-.92-.99-1.71-1.42-2.81-1.42Z" class="cls-4"/>
      <path d="M356.52,33.78l.68.45c-.88,1.3-2.16,1.94-3.83,1.94-1.46,0-2.67-.47-3.6-1.39-.94-.94-1.4-2.11-1.4-3.53s.45-2.61,1.35-3.6c.92-.99,2.02-1.48,3.31-1.48s2.29.45,3.15,1.37c.86.9,1.3,2.12,1.3,3.66h-7.53c0,1.75.96,4,3.71,4,1.15,0,1.93-.41,2.86-1.42ZM351.17,28.03c-.58.59-.95,1.31-1.13,2.2h5.87c-.02-.77-.32-1.49-.88-2.12-.56-.63-1.21-.95-1.95-.95s-1.33.29-1.91.88Z" class="cls-4"/>
    </g>
    <g>
      <path d="M126.39,14.19c-1.13-1.35-1.71-2.92-1.71-4.74,0-1.3.31-2.45.94-3.46.63-1.01,1.42-1.76,2.38-2.27.95-.5,1.98-.76,3.04-.76s2,.25,2.84.74c.86.49,1.51,1.13,1.93,1.91l-.76.4c-1.17-1.39-2.32-2.03-3.92-2.03-1.46,0-2.63.5-3.51,1.51-.88.99-1.31,2.32-1.31,4s.43,3.01,1.28,4.09c.86,1.06,2.05,1.6,3.58,1.6s2.99-.68,4.16-2.05l.76.4c-.41.77-1.1,1.42-2.03,1.93-.94.49-1.96.74-3.1.74-1.89,0-3.4-.67-4.56-2Z" class="cls-4"/>
      <path d="M138.56,7.62c.92-.95,2.07-1.42,3.46-1.42s2.54.47,3.46,1.42c.92.94,1.37,2.12,1.37,3.57s-.45,2.65-1.37,3.6c-.92.94-2.07,1.4-3.46,1.4s-2.54-.47-3.46-1.4c-.92-.95-1.37-2.14-1.37-3.6s.45-2.63,1.37-3.57ZM144.3,14.03c.63-.81.96-1.75.96-2.84s-.32-2.04-.96-2.83c-.63-.79-1.39-1.19-2.29-1.19s-1.64.4-2.27,1.19c-.63.79-.95,1.73-.97,2.83.02,1.1.34,2.03.97,2.84.63.79,1.39,1.19,2.27,1.19s1.66-.4,2.29-1.19Z" class="cls-4"/>
      <path d="M162.46,9.29v6.72h-1.55v-6.68c0-1.28-.83-2.18-2.04-2.18-.95,0-1.82.54-2.56,1.6.02.23.04.41.04.54v6.72h-1.55v-6.68c0-1.28-.83-2.18-2.03-2.18-.94,0-1.76.52-2.5,1.55v7.31h-1.55V6.37h1.55v1.26c.68-.97,1.69-1.46,3.03-1.46,1.49,0,2.45.59,2.86,1.78.7-1.19,1.78-1.78,3.24-1.78,1.96,0,3.06,1.12,3.06,3.12Z" class="cls-4"/>
      <path d="M178.7,9.29v6.72h-1.55v-6.68c0-1.28-.83-2.18-2.04-2.18-.95,0-1.82.54-2.56,1.6.02.23.04.41.04.54v6.72h-1.55v-6.68c0-1.28-.83-2.18-2.03-2.18-.94,0-1.76.52-2.5,1.55v7.31h-1.55V6.37h1.55v1.26c.68-.97,1.69-1.46,3.03-1.46,1.49,0,2.45.59,2.86,1.78.7-1.19,1.78-1.78,3.24-1.78,1.96,0,3.06,1.12,3.06,3.12Z" class="cls-4"/>
      <path d="M189.23,6.37v9.63h-1.55v-1.22c-.72.95-1.82,1.42-3.31,1.42-2.04,0-3.17-1.12-3.17-3.12v-6.72h1.55v6.68c0,1.3.85,2.18,2.21,2.18,1.08,0,1.98-.52,2.72-1.55v-7.31h1.55Z" class="cls-4"/>
      <path d="M199.76,9.29v6.72h-1.55v-6.68c0-1.3-.85-2.18-2.21-2.18-1.08,0-1.98.52-2.72,1.55v7.31h-1.55V6.37h1.55v1.22c.72-.95,1.82-1.42,3.31-1.42,2.03,0,3.17,1.12,3.17,3.12Z" class="cls-4"/>
      <path d="M203.05,2.97c.5,0,.9.41.9.9s-.4.9-.9.9-.92-.4-.92-.9.42-.9.92-.9ZM202.28,6.37h1.55v9.63h-1.55V6.37Z" class="cls-4"/>
      <path d="M210.84,7.17c-1.1,0-1.98.4-2.61,1.17-.63.77-.94,1.71-.94,2.84s.31,2.03.9,2.84c.61.79,1.49,1.19,2.65,1.19s1.91-.43,2.83-1.42l.69.45c-.9,1.3-2.16,1.94-3.76,1.94-1.42,0-2.59-.47-3.51-1.42s-1.37-2.12-1.37-3.55.45-2.61,1.37-3.57c.92-.97,2.07-1.46,3.49-1.46,1.6,0,2.86.65,3.76,1.94l-.68.45c-.92-.99-1.71-1.42-2.81-1.42Z" class="cls-4"/>
      <path d="M215.43,13.29c0-.9.32-1.62.96-2.18.63-.56,1.48-.83,2.5-.83.88,0,1.89.27,2.38.47l.34.16v-1.46c0-1.44-.81-2.29-2.11-2.29-1.49,0-2.49,1.15-2.76,1.6l-.11.2-.72-.49c.88-1.53,2.21-2.29,4.03-2.29,2.14,0,3.21,1.12,3.21,3.35v6.46h-1.55v-.68l-.05.04c-.27.2-1.24.85-2.76.85-2.07,0-3.37-1.17-3.37-2.92ZM221.34,14.66l.27-.2v-2.77c-.7-.29-1.44-.43-2.18-.43-1.51,0-2.45.81-2.45,2.02s.92,1.96,2.29,1.96c.81,0,1.69-.31,2.07-.58Z" class="cls-4"/>
      <path d="M224.81,6.37h1.24v-2.58h1.55v2.58h2.47v.95h-2.47v5.96c0,1.44.3,1.89,1.22,1.89.36,0,.79-.16,1.28-.47l.43.7c-.5.52-1.21.77-2.09.77-1.6,0-2.39-.97-2.39-2.92v-5.94h-1.24v-.95Z" class="cls-4"/>
      <path d="M232.71,2.97c.5,0,.9.41.9.9s-.4.9-.9.9-.92-.4-.92-.9.41-.9.92-.9ZM231.94,6.37h1.55v9.63h-1.55V6.37Z" class="cls-4"/>
      <path d="M236.75,7.62c.92-.95,2.07-1.42,3.46-1.42s2.54.47,3.46,1.42c.92.94,1.37,2.12,1.37,3.57s-.45,2.65-1.37,3.6c-.92.94-2.07,1.4-3.46,1.4s-2.54-.47-3.46-1.4c-.92-.95-1.37-2.14-1.37-3.6s.45-2.63,1.37-3.57ZM242.49,14.03c.63-.81.96-1.75.96-2.84s-.32-2.04-.96-2.83c-.63-.79-1.38-1.19-2.29-1.19s-1.64.4-2.27,1.19-.95,1.73-.97,2.83c.02,1.1.34,2.03.97,2.84.63.79,1.39,1.19,2.27,1.19s1.66-.4,2.29-1.19Z" class="cls-4"/>
      <path d="M254.95,9.29v6.72h-1.55v-6.68c0-1.3-.85-2.18-2.21-2.18-1.08,0-1.98.52-2.72,1.55v7.31h-1.55V6.37h1.55v1.22c.72-.95,1.82-1.42,3.31-1.42,2.04,0,3.17,1.12,3.17,3.12Z" class="cls-4"/>
      <path d="M256.56,13.77l.74-.43c.61,1.24,1.64,1.87,3.08,1.87s2.3-.72,2.3-1.8c0-.56-.22-.94-.63-1.17-.41-.23-1.15-.47-2.2-.7-.74-.16-1.19-.32-1.91-.7-.7-.41-1.1-1.12-1.1-2.05,0-1.66,1.3-2.59,3.24-2.59,1.77,0,2.99.72,3.67,2.16l-.74.43c-.67-1.13-1.4-1.62-2.68-1.62s-1.91.45-1.91,1.37c0,.5.31.92.58,1.13.13.11.34.22.61.31.56.16.61.2,1.17.29,2.21.43,3.47,1.13,3.47,2.92,0,.99-.36,1.73-1.1,2.25-.72.5-1.62.76-2.7.76-2.02,0-3.35-.95-3.91-2.41Z" class="cls-4"/>
      <path d="M269.85,13.29c0-.9.32-1.62.95-2.18.63-.56,1.48-.83,2.5-.83.88,0,1.89.27,2.38.47l.34.16v-1.46c0-1.44-.81-2.29-2.11-2.29-1.49,0-2.48,1.15-2.75,1.6l-.11.2-.72-.49c.88-1.53,2.21-2.29,4.03-2.29,2.14,0,3.21,1.12,3.21,3.35v6.46h-1.55v-.68l-.05.04c-.27.2-1.24.85-2.75.85-2.07,0-3.37-1.17-3.37-2.92ZM275.75,14.66l.27-.2v-2.77c-.7-.29-1.44-.43-2.18-.43-1.51,0-2.45.81-2.45,2.02s.92,1.96,2.29,1.96c.81,0,1.69-.31,2.07-.58Z" class="cls-4"/>
      <path d="M288.1,9.29v6.72h-1.55v-6.68c0-1.3-.85-2.18-2.21-2.18-1.08,0-1.98.52-2.72,1.55v7.31h-1.55V6.37h1.55v1.22c.72-.95,1.82-1.42,3.31-1.42,2.03,0,3.17,1.12,3.17,3.12Z" class="cls-4"/>
      <path d="M298.97,2.32v13.68h-1.55v-1.3c-.9.99-1.91,1.48-3.02,1.48-1.24,0-2.3-.47-3.15-1.39-.85-.94-1.26-2.14-1.26-3.6s.41-2.67,1.26-3.6c.85-.94,1.91-1.4,3.15-1.4,1.1,0,2.11.49,3.02,1.48V2.32h1.55ZM297.42,13.58v-4.74c-.83-1.12-1.73-1.67-2.72-1.67-.88,0-1.62.4-2.23,1.19-.59.77-.9,1.73-.9,2.83s.31,2.05.9,2.84c.61.79,1.37,1.19,2.25,1.19.95,0,1.85-.54,2.7-1.64Z" class="cls-4"/>
    </g>
    <g>
      <g>
        <path d="M129.86,53.05h3.24v-.56h-3.87v-.9c1.06-.09,2.03-.23,2.94-.42l.13-.03-.31-.58h-.07c-2.1.44-4.24.65-6.36.65h-.13s.17.6.17.6h.08c1.03-.02,2.03-.07,2.96-.16v.84h-3.87v.56h3.22c-.35.36-.79.72-1.33,1.06-.39.25-.74.45-1.08.62-.33.17-.67.31-1.01.43l-.1.04.27.55.08-.03c.48-.18.98-.42,1.49-.71v4.36h.6v-.62h4.08v.62h.6v-4.36h-5.28c.27-.16.54-.33.82-.51.32-.22.63-.46.91-.73.23-.21.43-.4.59-.59v1.69h.6v-1.69c.8.9,2.03,1.73,3.66,2.46l.06.03.48-.52-.13-.05c-1.53-.62-2.68-1.3-3.44-2.03ZM126.9,56.55v-.99h4.08v.99h-4.08ZM130.99,57.11v1.06h-4.08v-1.06h4.08Z" class="cls-1"/>
        <path d="M137.74,52.59l.08.08.37-.5-.06-.06c-.45-.42-.94-.8-1.49-1.15l-.08-.05-.34.46.08.06c.47.32.96.71,1.43,1.17Z" class="cls-1"/>
        <path d="M142.63,54.2h1.96v-.56h-2.11v-1.18h1.62v-.56h-1.62v-1.41h-.6v1.41h-1.53v-1.41h-.6v1.41h-1.37v.56h1.37v1.18h-1.92v.56h1.84c-.14.27-.32.56-.54.86-.33.43-.75.82-1.23,1.17l-.09.07.45.43.07-.05c.28-.22.51-.42.72-.62.15-.15.3-.31.45-.48v2.5c0,.19.02.34.06.47.04.12.11.21.21.27.05.07.2.13.76.16.5.03,1.2.05,2.02.05.42,0,.74-.03.97-.09.24-.06.38-.18.42-.32.02-.04.04-.13.07-.37v-.03c.02-.2.05-.48.08-.87v-.07s-.63-.31-.63-.31v.15c-.05.72-.08,1.07-.09,1.1-.05.09-.24.21-.81.21-1.99,0-2.33-.08-2.38-.11-.03-.03-.05-.06-.06-.1,0-.02-.02-.07-.01-.16v-.94h2.73v-1.81c.41.4.89.78,1.44,1.13l.07.04.47-.52-.11-.06c-.9-.51-1.59-1.08-2.05-1.7ZM141.88,52.46v1.18h-1.53v-1.18h1.53ZM140.08,56.55v-.95h2.13v.95h-2.13ZM139.88,55.04c.17-.26.32-.54.46-.84h1.58c.18.29.39.57.64.84h-2.68Z" class="cls-1"/>
        <path d="M137.96,55.54l-.5-.34-.04.13c-.37,1.26-.89,2.43-1.55,3.48l-.05.08.54.38.05-.1c.35-.63.63-1.21.87-1.78.25-.6.47-1.2.65-1.79l.02-.07Z" class="cls-1"/>
        <path d="M136.62,54.06c.27.24.52.5.71.69l.08.08.38-.49-.06-.06c-.47-.49-.97-.92-1.49-1.27l-.08-.05-.34.44.08.06c.24.19.48.39.72.59Z" class="cls-1"/>
        <path d="M155.45,57.34c-.04.34-.06.6-.09.79-.04.2-.06.35-.08.41-.01.03-.05.11-.1.11-.06,0-.13-.05-.22-.16-.1-.13-.21-.33-.33-.59-.08-.15-.15-.3-.2-.46-.06-.17-.12-.33-.16-.5h0c.46-.65.84-1.73,1.15-3.22l.02-.09-.63-.16-.02.1c-.11.57-.24,1.07-.39,1.54-.12.35-.24.67-.36.93-.07-.27-.12-.55-.16-.86-.06-.33-.11-.69-.15-1.13-.04-.38-.06-.78-.08-1.21h2.22v-.56h-.91l.46-.32-.04-.08c-.12-.22-.25-.43-.38-.64-.12-.18-.26-.36-.44-.59l-.06-.07-.49.33.06.08c.17.23.3.41.42.61.14.21.25.43.34.62l.02.05h-1.24c-.03-.49-.04-1.05-.03-1.71v-.1s-.64,0-.64,0v.1c-.01.64,0,1.2.03,1.71h-2.72v2.74c0,.4-.03.78-.08,1.13l-.08-.5-.12.07c-.28.16-.59.32-.93.45v-2.44h1.08v-.56h-1.08v-2.4h-.6v2.4h-1.14v.56h1.14v2.68c-.17.07-.35.14-.55.2-.21.07-.44.15-.66.21l-.12.03.31.59.08-.02c.34-.1.73-.25,1.23-.47.39-.16.82-.36,1.4-.64h.03s0,.01,0,.03c-.06.39-.16.72-.28,1-.13.29-.28.56-.46.79-.18.23-.38.44-.61.65l-.07.06.38.48.08-.06c.24-.2.46-.43.68-.69.21-.27.39-.56.53-.87.29-.64.44-1.51.45-2.6v-.43h1.31c-.03.64-.06,1.05-.09,1.37-.04.39-.08.65-.11.79-.04.12-.12.27-.27.27-.06,0-.17,0-.33-.04-.15-.03-.3-.08-.47-.15l-.13-.05v.66l.06.02c.19.07.38.12.56.15.15.04.3.05.39.04.16.01.3-.04.4-.14.1-.08.2-.22.29-.42.07-.18.12-.5.19-1.03.04-.45.08-1.04.12-1.93v-.1s-1.92,0-1.92,0v-1.24h2.15c.06.98.16,1.87.31,2.65.03.23.07.47.13.69.04.21.1.41.16.59-.46.65-1.07,1.24-1.87,1.8l-.08.06.37.48.08-.05c.7-.46,1.27-.96,1.74-1.53.11.31.23.59.38.84.34.61.66.9.96.9.2,0,.38-.08.52-.25.06-.11.12-.28.18-.51.06-.23.11-.51.14-.87v-.05s-.55-.45-.55-.45l-.02.22Z" class="cls-1"/>
        <path d="M163.51,51.73l-.04-.08c-.13-.22-.27-.43-.45-.66-.15-.19-.31-.38-.51-.61l-.06-.06-.53.37.07.08c.31.34.57.7.78,1.06h-4.31v.64h4.13v1.51h-3.1v4.43h.68v-3.8h2.42v4.75h.68v-4.75h2.54v2.77c0,.19-.04.26-.07.28-.01.01-.03.03-.09.02-.37,0-.8-.09-1.29-.29l-.15-.06.06.66.06.02c.22.09.45.15.7.19.21.05.42.07.63.07.55,0,.83-.29.83-.83v-3.49h-3.21v-1.51h4.13v-.64h-4.01l.13-.09Z" class="cls-1"/>
        <path d="M177.37,57.74c-.4-.36-.74-.75-1.04-1.19-.32-.41-.59-.87-.8-1.36-.2-.46-.35-.93-.45-1.44h3.31v-.68h-4.12c.09-.69.17-1.5.25-2.48v-.1s-.67,0-.67,0v.09c-.03.32-.06.63-.09.92-.01.15-.03.3-.04.45-.04.37-.09.77-.14,1.13h-3.42v.68h3.31c-.1.5-.22.96-.36,1.39-.15.44-.31.81-.47,1.08-.61,1-1.56,1.85-2.83,2.54l-.12.06.52.48.06-.03c.71-.39,1.3-.8,1.8-1.24.51-.46.92-.96,1.22-1.49.36-.61.65-1.55.88-2.79h.2c.12.6.28,1.13.49,1.63.25.58.53,1.07.85,1.5.33.51.69.95,1.1,1.35.39.38.83.73,1.37,1.08l.07.05.51-.6-.1-.06c-.48-.29-.91-.61-1.28-.96Z" class="cls-1"/>
        <path d="M189.95,56.99h-4.12s0-.01,0-.02h0c.47-.15.9-.31,1.29-.48.45-.19.84-.39,1.2-.61l.05-.03v-.48h-5.47v.56h4.2c-.48.2-.98.37-1.51.51,0-.01-.01-.03-.02-.04v-.02s-.06-.06-.08-.1l-.04-.09-.52.24.06.09s.06.1.08.14c.03.05.06.1.08.14.03.07.06.13.09.19h-3.96v.56h4.13l.04.3c.02.14.03.28.04.41,0,.13-.02.23-.03.3-.02.07-.04.09-.03.09h0s-.06.02-.09.03c-.03,0-.07.02-.11.02-.29,0-.6-.07-.96-.22l-.15-.06.06.67.06.02c.18.06.37.11.55.14.21.03.38.05.54.05.21,0,.39-.05.54-.17.16-.13.23-.41.23-.87v-.05c-.01-.1-.02-.22-.04-.34v-.07c-.02-.08-.03-.16-.05-.25h3.96v-.56Z" class="cls-1"/>
        <path d="M182.17,54.94h6.89v.95h.59v-1.52h-.61l.18-3.44h-2.27v.56h1.65l-.04.58h-1.65v.57h1.62l-.03.54h-1.74v.56h1.71l-.04.62h-1.87l.32-.36-.08-.06c-.11-.09-.23-.2-.35-.31-.09-.07-.18-.15-.27-.23.17-.17.34-.37.52-.62l.04-.06-.2-.22.33-.36-.08-.06c-.11-.09-.2-.18-.3-.27l-.02-.02c-.08-.06-.16-.13-.24-.2.09-.09.19-.19.28-.3.12-.13.24-.28.34-.41l.05-.06-.36-.41-.07.1c-.18.25-.4.5-.66.74-.25-.18-.52-.36-.87-.59l-.07-.05-.34.4.09.06c.18.12.37.25.55.38l.21.15c-.14.1-.26.18-.38.25-.16.11-.34.2-.52.27h0s0-.04,0-.04h-1.77v-.33c.26-.05.54-.11.84-.21.29-.09.57-.21.87-.34l.1-.05-.33-.53-.08.03c-.62.27-1.27.46-1.93.55h-.09s.08,3.17.08,3.17h-.62v1.52h.6v-.95ZM185.84,51.96c.16.15.33.31.5.47-.17.24-.35.45-.56.65-.12-.08-.24-.16-.35-.24-.14-.1-.28-.2-.42-.29l-.04-.03c.13-.07.26-.14.4-.22.18-.11.34-.22.48-.33ZM185.78,53.78c.09.09.19.18.29.26.11.11.23.23.34.33h-1.6c.33-.15.65-.35.97-.59ZM184.49,52.33l.2.32.08-.04s.07-.03.1-.05l-.29.35.29.2c.15.1.31.21.47.32-.26.19-.55.37-.88.51l-.1.05.25.39h0s-1.85,0-1.85,0v-.66s1.8,0,1.8,0v-.56h-1.82v-.5s1.76,0,1.76,0v-.33Z" class="cls-1"/>
      </g>
      <g>
        <path d="M129.83,66.51c-.08.16-.18.32-.31.47s-.27.29-.42.42c-.16.12-.33.22-.51.3-.18.07-.37.11-.56.11-.33,0-.64-.06-.92-.17-.28-.11-.53-.28-.73-.49-.21-.21-.37-.48-.49-.79-.12-.31-.18-.67-.18-1.06s.06-.76.18-1.07c.12-.31.29-.58.5-.8.21-.22.46-.39.74-.51.28-.12.59-.18.91-.18.37,0,.71.11,1,.31.29.21.55.55.79,1l.03.05.51-.33-.03-.04c-.12-.2-.26-.38-.43-.56-.17-.18-.36-.34-.58-.48-.21-.14-.46-.25-.72-.33-.26-.08-.55-.13-.86-.13s-.63.04-.92.11c-.29.07-.55.18-.79.32-.24.14-.46.3-.65.49s-.36.4-.49.62c-.13.23-.24.47-.31.73-.07.26-.11.53-.11.8,0,.41.08.8.23,1.17.15.37.37.69.65.97.28.27.62.49,1.01.66.39.16.83.24,1.31.24.33,0,.64-.04.91-.12.27-.08.52-.19.73-.33.21-.14.41-.3.57-.48.16-.18.31-.37.43-.56l.03-.04-.5-.32-.03.05Z" class="cls-1"/>
        <polygon points="131.42 63.84 131.42 68.18 132.4 68.18 132.4 63.57 132.09 63.57 131.42 63.84" class="cls-1"/>
        <path d="M132.3,61.62c-.05-.05-.11-.09-.18-.12-.13-.06-.3-.06-.43,0-.07.03-.13.07-.18.12-.05.05-.09.11-.12.18-.03.07-.04.14-.04.21s.01.15.04.21c.03.07.07.13.12.18.05.05.11.09.18.12.07.03.14.04.21.04s.15-.01.21-.04c.07-.03.13-.07.18-.12.05-.05.09-.11.12-.18.03-.07.04-.14.04-.21s-.01-.15-.04-.21c-.03-.07-.07-.13-.12-.18Z" class="cls-1"/>
        <path d="M135.84,67.38c-.06.07-.12.12-.2.17-.12.07-.29.09-.41.03-.05-.02-.1-.05-.13-.09-.04-.04-.07-.08-.09-.14-.02-.05-.03-.11-.03-.17v-3.07h.99v-.48h-.99v-1.5h-.3l-.68.26v1.25l-.77.21v.25h.77v3.07c0,.16.02.3.05.43.04.13.09.25.17.34.08.1.17.17.29.23.12.05.25.08.41.08.29,0,.54-.06.74-.18.2-.12.36-.29.49-.5l.02-.04-.3-.2-.03.03Z" class="cls-1"/>
        <path d="M139.03,66.78l-1.67-3.13h-1.11l2.29,4.27-.29.64c-.03.08-.08.16-.13.25-.05.09-.11.17-.17.25-.06.07-.13.14-.21.18-.13.09-.3.08-.42.05-.06-.01-.11-.03-.16-.05-.05-.02-.09-.04-.13-.06-.04-.02-.08-.04-.12-.06l-.05-.02-.4.9.03.02c.07.06.16.1.26.13.1.03.21.05.32.05.14,0,.29-.03.44-.08.15-.05.3-.13.44-.24.14-.11.28-.24.4-.4.12-.16.24-.35.33-.57l2.29-5.28h-.58l-1.37,3.13Z" class="cls-1"/>
        <path d="M147.52,66.12c0,.24-.04.46-.12.67-.08.21-.2.39-.34.55-.15.16-.33.28-.54.37-.21.09-.45.14-.72.14s-.5-.05-.72-.14c-.21-.09-.4-.22-.55-.37-.15-.16-.27-.34-.35-.55-.08-.21-.12-.43-.12-.67v-3.77h-1.07v3.75c0,.3.05.6.16.86.11.27.27.51.48.71.21.2.47.36.78.48.31.12.67.17,1.07.17.45,0,.84-.06,1.16-.17.32-.12.59-.27.8-.47.21-.2.36-.43.46-.7.1-.26.15-.55.15-.85v-3.77h-.52v3.77Z" class="cls-1"/>
        <path d="M152.66,63.98c-.1-.13-.23-.23-.37-.3-.14-.07-.29-.11-.46-.11-.3,0-.61.08-.9.23-.26.13-.52.33-.76.59v-.82h-.3l-.68.26v4.35h.98v-3.31c.09-.09.19-.17.29-.24.1-.08.21-.14.32-.2.1-.05.21-.1.31-.13.21-.06.39-.06.54,0,.08.04.15.09.21.16.06.07.1.16.14.26.03.11.05.23.05.37v3.07h.98v-3.22c0-.19-.03-.37-.09-.54-.06-.17-.14-.32-.25-.44Z" class="cls-1"/>
        <polygon points="154.3 63.84 154.3 68.18 155.28 68.18 155.28 63.57 154.97 63.57 154.3 63.84" class="cls-1"/>
        <path d="M155.17,61.62c-.05-.05-.11-.09-.18-.12-.13-.06-.3-.06-.43,0-.07.03-.13.07-.18.12-.05.05-.09.11-.12.18-.03.07-.04.14-.04.21s.01.15.04.21c.03.07.07.13.12.18.05.05.11.09.18.12.07.03.14.04.21.04s.15-.01.21-.04c.07-.03.13-.07.18-.12.05-.05.09-.11.12-.18.03-.07.04-.14.04-.21s-.01-.15-.04-.21c-.03-.07-.07-.13-.12-.18Z" class="cls-1"/>
        <polygon points="158.38 66.93 156.86 63.68 156.85 63.65 155.81 63.65 157.94 68.2 157.95 68.23 158.32 68.23 160.36 63.65 159.85 63.65 158.38 66.93" class="cls-1"/>
        <path d="M164.57,66.45c-.04.13-.11.26-.2.39-.1.13-.22.24-.35.34-.14.1-.29.18-.47.24-.17.06-.35.09-.53.09-.22,0-.42-.05-.6-.15-.18-.1-.34-.24-.48-.42-.13-.18-.24-.39-.31-.64-.07-.23-.11-.49-.11-.76h3.3v-.05c0-.25-.05-.49-.15-.72-.1-.23-.24-.44-.42-.61-.18-.18-.39-.32-.64-.42-.25-.1-.52-.16-.82-.16-.33,0-.64.06-.91.19-.27.13-.51.3-.7.53-.19.22-.35.49-.45.8-.11.31-.16.64-.16,1,0,.3.06.59.17.85s.28.5.48.7.44.35.71.47c.27.11.56.17.86.17.23,0,.47-.04.69-.13.23-.09.44-.21.63-.36.19-.15.36-.33.5-.53.14-.2.25-.42.31-.66v-.04s-.34-.15-.34-.15l-.02.06ZM161.51,65.07c.01-.14.05-.27.1-.4.06-.14.14-.26.23-.36.09-.1.19-.18.31-.23.25-.12.54-.1.78,0,.13.06.25.14.35.24.1.1.18.22.23.36.05.12.08.26.08.4h-2.09Z" class="cls-1"/>
        <path d="M168.6,63.62c-.27-.07-.56-.07-.84.02-.14.05-.28.11-.41.19-.13.08-.25.18-.35.29-.07.08-.14.16-.19.24l-.1-.8h-.18l-.68.26v4.35h.98v-3.12c.06-.12.13-.23.2-.32.08-.09.16-.17.25-.23.09-.06.19-.1.29-.13.17-.05.34-.05.51-.04.07,0,.13.02.19.04.06.02.12.05.18.09.06.04.12.09.17.14l.06.06.32-.85-.03-.02c-.11-.08-.24-.14-.37-.17Z" class="cls-1"/>
        <path d="M172.16,66c-.12-.11-.27-.2-.42-.29-.16-.08-.32-.16-.47-.23l-.47-.2c-.15-.06-.29-.14-.41-.21-.12-.08-.21-.16-.28-.25-.07-.09-.1-.19-.1-.32,0-.07.02-.14.06-.2.04-.07.09-.12.16-.17.07-.05.15-.09.25-.12.1-.03.21-.04.33-.04.22,0,.44.07.63.19.2.13.38.33.54.6l.03.05.4-.36-.03-.04c-.14-.17-.27-.32-.39-.43-.12-.11-.25-.2-.38-.26-.13-.06-.26-.1-.39-.12-.13-.02-.27-.03-.42-.03-.22,0-.43.03-.62.1-.19.06-.36.15-.49.27-.14.11-.25.25-.33.41-.08.16-.12.33-.12.51,0,.19.04.37.11.51.07.14.16.27.28.38.11.11.24.21.39.29.14.08.29.16.44.23.15.07.29.14.43.21.14.06.26.14.37.21.11.08.19.16.26.26.06.09.09.2.09.33,0,.07-.02.15-.06.22-.04.07-.09.14-.16.19-.07.06-.15.1-.25.14-.2.07-.45.06-.65,0-.1-.03-.2-.08-.3-.14-.1-.07-.2-.15-.29-.25-.1-.1-.2-.23-.3-.38l-.03-.05-.44.39.03.04c.14.18.27.32.42.43.14.11.28.19.43.26.14.06.29.1.43.12.14.02.28.03.41.03.29,0,.55-.04.76-.11.22-.07.4-.17.54-.29.15-.12.26-.27.33-.44.07-.17.11-.35.11-.55s-.04-.36-.12-.51c-.08-.14-.18-.27-.3-.38Z" class="cls-1"/>
        <path d="M174.44,61.62c-.05-.05-.11-.09-.18-.12-.13-.06-.3-.06-.43,0-.07.03-.13.07-.18.12-.05.05-.09.11-.12.18-.03.07-.04.14-.04.21s.01.15.04.21c.03.07.07.13.12.18.05.05.11.09.18.12.07.03.14.04.21.04s.15-.01.21-.04c.07-.03.13-.07.18-.12.05-.05.09-.11.12-.18.03-.07.04-.14.04-.21s-.01-.15-.04-.21c-.03-.07-.07-.13-.12-.18Z" class="cls-1"/>
        <polygon points="173.57 63.84 173.57 68.18 174.54 68.18 174.54 63.57 174.24 63.57 173.57 63.84" class="cls-1"/>
        <path d="M177.99,67.38c-.06.07-.12.13-.2.17-.12.07-.29.09-.41.03-.05-.02-.1-.05-.13-.09-.04-.04-.07-.08-.09-.14-.02-.05-.03-.11-.03-.17v-3.07h.99v-.48h-.99v-1.5h-.3l-.68.26v1.25l-.77.21v.25h.77v3.07c0,.16.02.3.05.43.04.13.09.25.17.34.08.1.17.17.29.23.12.05.25.08.41.08.29,0,.54-.06.74-.18.2-.12.36-.29.49-.5l.02-.04-.3-.2-.03.03Z" class="cls-1"/>
        <path d="M181.17,66.78l-1.67-3.13h-1.11l2.29,4.27-.29.64c-.03.08-.08.16-.13.25-.05.09-.11.17-.17.25-.06.07-.13.14-.21.18-.07.05-.15.07-.23.07-.07,0-.14,0-.19-.02-.06-.01-.11-.03-.16-.05-.05-.02-.09-.04-.13-.06-.04-.02-.08-.04-.12-.06l-.05-.02-.4.9.03.02c.07.06.16.1.26.13.1.03.21.05.32.05.14,0,.29-.03.44-.08.15-.05.3-.13.44-.24s.28-.24.4-.4c.12-.16.24-.35.33-.57l2.29-5.28h-.58l-1.37,3.13Z" class="cls-1"/>
        <path d="M189.21,64.21c-.21-.2-.46-.36-.75-.47-.29-.11-.61-.17-.95-.17s-.67.06-.96.19c-.29.12-.54.3-.76.51s-.38.47-.5.77c-.12.29-.18.61-.18.94s.06.62.18.9c.12.28.29.52.5.73.21.21.47.37.76.49.29.12.61.18.96.18s.66-.07.95-.2c.29-.13.54-.31.75-.53.21-.22.38-.49.5-.79.12-.3.18-.62.18-.96,0-.31-.06-.6-.18-.87-.12-.27-.29-.51-.5-.71ZM188.12,67.72c-.14.08-.29.13-.45.13-.23,0-.44-.06-.62-.18-.18-.12-.34-.28-.46-.48-.13-.2-.23-.45-.29-.72-.07-.28-.1-.58-.1-.9,0-.22.03-.42.09-.61.06-.19.14-.36.25-.5.1-.14.22-.25.35-.33.13-.08.26-.12.4-.12.27,0,.51.06.7.17.19.11.35.27.47.47.12.2.21.44.26.71.05.28.08.58.08.89,0,.22-.03.42-.08.62-.06.19-.14.36-.24.51-.1.14-.22.26-.36.35Z" class="cls-1"/>
        <path d="M194.05,61.91c-.1-.11-.21-.21-.34-.28-.13-.08-.27-.13-.42-.18-.15-.04-.31-.06-.47-.06-.23,0-.46.05-.66.14-.21.1-.39.22-.54.39-.15.16-.27.35-.36.57-.09.22-.13.45-.13.7v.46h-.92v.48h.92v4.05h.98v-4.05h1.18v-.48h-1.18v-.99c0-.11.01-.21.04-.31.03-.1.07-.19.12-.27.05-.08.12-.14.19-.18.07-.04.15-.07.23-.07.14,0,.26.03.35.08.09.06.17.13.24.22.06.09.12.2.16.31.04.12.08.23.11.35l.02.07.73-.53-.02-.04c-.06-.14-.14-.26-.24-.37Z" class="cls-1"/>
        <polygon points="200.02 64.96 197.25 64.96 197.25 62.34 196.18 62.34 196.18 68.18 197.25 68.18 197.25 65.43 200.02 65.43 200.02 68.18 201.09 68.18 201.09 62.34 200.02 62.34 200.02 64.96" class="cls-1"/>
        <path d="M206.12,64.21c-.21-.2-.46-.36-.75-.47-.29-.11-.61-.17-.95-.17s-.67.06-.96.19c-.29.12-.54.3-.76.51s-.38.47-.5.77c-.12.29-.18.61-.18.94s.06.62.18.9c.12.28.29.52.5.73.21.21.46.37.76.49.29.12.61.18.96.18s.66-.07.95-.2c.29-.13.54-.31.75-.53.21-.22.38-.49.5-.79.12-.3.18-.62.18-.96,0-.31-.06-.6-.18-.87-.12-.27-.29-.51-.5-.71ZM205.04,67.72c-.14.08-.29.13-.45.13-.23,0-.44-.06-.62-.18-.18-.12-.34-.28-.46-.48-.13-.2-.23-.45-.29-.72-.07-.28-.1-.58-.1-.9,0-.22.03-.42.09-.61.06-.19.14-.36.25-.5.1-.14.22-.25.35-.33.13-.08.26-.12.4-.12.27,0,.51.06.7.17.19.11.35.27.47.47.12.2.21.44.26.71.05.28.08.58.08.89,0,.22-.03.42-.08.62-.06.19-.14.36-.24.51-.1.14-.22.26-.36.35Z" class="cls-1"/>
        <path d="M211.2,63.98c-.11-.13-.23-.23-.37-.3-.14-.07-.29-.11-.46-.11-.3,0-.61.08-.9.23-.26.13-.52.33-.76.59v-.82h-.3l-.68.26v4.35h.98v-3.31c.09-.09.19-.17.29-.24.1-.08.21-.14.32-.2.1-.05.21-.1.31-.13.21-.06.39-.06.54,0,.08.04.15.09.21.16.06.07.11.16.14.26.03.11.05.23.05.37v3.07h.98v-3.22c0-.19-.03-.37-.09-.54-.06-.17-.14-.32-.25-.44Z" class="cls-1"/>
        <path d="M215.55,63.77c-.09-.04-.19-.07-.3-.1-.11-.03-.24-.05-.36-.07-.13-.02-.26-.03-.4-.03-.28,0-.54.04-.78.13-.24.09-.45.2-.63.35-.18.15-.32.32-.43.52-.1.2-.15.41-.15.64,0,.3.09.58.26.81.15.2.36.37.61.5-.09.04-.17.08-.25.14-.11.08-.21.16-.29.25-.09.09-.15.19-.2.29-.05.1-.08.2-.08.3,0,.07.02.13.05.19.03.06.08.11.13.16.05.05.12.09.19.13.05.02.1.05.15.06-.09.07-.18.14-.27.22-.12.1-.23.2-.32.3-.1.1-.18.22-.24.33-.06.12-.1.24-.1.37,0,.15.05.29.15.41.09.12.24.22.43.3.18.08.42.14.7.19.28.04.6.07.97.07.41,0,.79-.04,1.11-.12.33-.08.61-.2.84-.35.23-.15.41-.34.53-.55.12-.22.19-.46.19-.72,0-.15-.02-.29-.07-.41-.05-.12-.13-.23-.24-.32-.11-.09-.26-.16-.44-.21-.18-.05-.4-.08-.67-.09l-1.63-.07c-.17,0-.3-.04-.39-.08-.08-.04-.12-.1-.12-.17,0-.08.03-.17.08-.25.05-.08.11-.15.18-.21.08.03.18.05.29.06.12.02.24.03.35.03.31,0,.59-.04.84-.11.26-.07.48-.18.66-.32.19-.14.33-.31.44-.5.1-.19.16-.41.16-.65,0-.15-.03-.31-.08-.46-.04-.12-.1-.23-.16-.34h.8v-.47h-1.29c-.05-.04-.12-.08-.2-.12ZM213.11,68.66c.02-.06.04-.13.07-.19.03-.06.07-.12.12-.18.04-.05.09-.1.15-.14.06,0,.16.02.28.03.15.02.31.03.49.04.19.01.39.02.61.03.21.01.43.02.65.02.17,0,.32.01.45.03.13.02.24.06.33.1.09.04.15.1.2.16.04.06.07.14.07.23,0,.08-.04.17-.11.25-.08.09-.2.17-.36.24-.16.07-.35.13-.58.18-.23.05-.49.07-.78.07-.27,0-.51-.02-.72-.06-.2-.04-.37-.09-.51-.16-.13-.07-.23-.14-.29-.22-.06-.08-.09-.16-.09-.25,0-.06,0-.12.02-.18ZM214.01,63.99c.1-.06.22-.08.36-.08s.28.04.4.11c.13.07.24.18.34.31.1.13.18.29.23.47.06.18.09.38.09.59,0,.15-.02.28-.07.41-.05.12-.12.24-.2.33-.08.09-.18.17-.29.22-.24.12-.51.1-.72-.02-.12-.07-.22-.16-.3-.29-.09-.12-.15-.27-.2-.44-.05-.17-.07-.35-.07-.54,0-.16.02-.32.05-.46.03-.14.08-.26.15-.36.06-.1.15-.18.25-.24Z" class="cls-1"/>
        <polygon points="223.93 62.34 223.14 62.34 220.19 64.83 220.19 62.34 219.13 62.34 219.13 68.18 220.19 68.18 220.19 65.33 223.3 68.17 223.31 68.18 224.69 68.18 221 64.81 223.93 62.34" class="cls-1"/>
        <path d="M228.87,64.21c-.21-.2-.46-.36-.75-.47-.29-.11-.61-.17-.95-.17s-.67.06-.96.19c-.29.12-.54.3-.76.51s-.38.47-.5.77c-.12.29-.18.61-.18.94s.06.62.18.9c.12.28.29.52.5.73.21.21.46.37.76.49.29.12.61.18.96.18s.66-.07.95-.2c.29-.13.54-.31.75-.53.21-.22.38-.49.5-.79.12-.3.18-.62.18-.96,0-.31-.06-.6-.18-.87-.12-.27-.29-.51-.5-.71ZM227.79,67.72c-.14.08-.29.13-.45.13-.23,0-.44-.06-.62-.18-.18-.12-.34-.28-.46-.48-.13-.2-.23-.45-.29-.72-.07-.28-.1-.58-.1-.9,0-.22.03-.42.09-.61.06-.19.14-.36.25-.5.1-.14.22-.25.35-.33.13-.08.26-.12.4-.12.27,0,.51.06.7.17.19.11.35.27.47.47.12.2.21.44.26.71.05.28.08.58.08.89,0,.22-.03.42-.08.62-.06.19-.14.36-.24.51-.1.14-.22.26-.36.35Z" class="cls-1"/>
        <path d="M233.95,63.98c-.11-.13-.23-.23-.37-.3-.14-.07-.29-.11-.46-.11-.3,0-.61.08-.9.23-.26.13-.52.33-.76.59v-.82h-.3l-.68.26v4.35h.98v-3.31c.09-.09.19-.17.29-.24.1-.08.21-.14.32-.2.1-.05.21-.1.31-.13.21-.06.39-.06.54,0,.08.04.15.09.21.16.06.07.11.16.14.26.03.11.05.23.05.37v3.07h.98v-3.22c0-.19-.03-.37-.09-.54-.06-.17-.14-.32-.25-.44Z" class="cls-1"/>
        <path d="M239.79,63.88h-1.29c-.05-.04-.12-.08-.2-.12-.09-.04-.19-.07-.3-.1-.11-.03-.24-.05-.36-.07-.13-.02-.26-.03-.4-.03-.28,0-.54.04-.78.13-.24.09-.45.2-.63.35-.18.15-.32.32-.43.52-.1.2-.15.41-.15.64,0,.3.09.58.26.81.15.2.36.37.61.5-.09.04-.17.08-.25.14-.11.08-.21.16-.29.25-.09.09-.15.19-.2.29-.05.1-.08.2-.08.3,0,.07.02.13.05.19.03.06.08.11.13.16.05.05.12.09.19.13.05.02.1.05.15.06-.09.07-.18.14-.27.22-.12.1-.23.2-.32.3-.1.1-.18.22-.24.33-.06.12-.1.24-.1.37,0,.15.05.29.15.41.09.12.24.22.43.3.18.08.42.14.7.19.28.04.6.07.97.07.41,0,.79-.04,1.11-.12.33-.08.61-.2.84-.35.23-.15.41-.34.53-.55.12-.22.19-.46.19-.72,0-.15-.02-.29-.07-.41-.05-.12-.13-.23-.24-.32-.11-.09-.26-.16-.44-.21-.18-.05-.4-.08-.67-.09l-1.63-.07c-.17,0-.3-.04-.39-.08-.08-.04-.12-.1-.12-.17,0-.08.03-.17.08-.25.05-.08.11-.15.18-.21.08.03.18.05.29.06.12.02.24.03.35.03.31,0,.59-.04.84-.11.26-.07.48-.18.66-.32.19-.14.33-.31.44-.5.1-.19.16-.41.16-.65,0-.15-.03-.31-.08-.46-.04-.12-.1-.23-.16-.34h.8v-.47ZM235.86,68.66c.02-.06.04-.13.07-.19.03-.06.07-.12.12-.18.04-.05.09-.1.15-.14.06,0,.16.02.28.03.15.02.31.03.49.04.19.01.39.02.61.03.21.01.43.02.65.02.17,0,.32.01.45.03.13.02.24.06.33.1.09.04.15.1.2.16.04.06.07.14.07.23,0,.08-.04.17-.11.25-.08.09-.2.17-.36.24-.16.07-.35.13-.58.18-.23.05-.49.07-.78.07-.27,0-.51-.02-.72-.06-.2-.04-.37-.09-.51-.16-.13-.07-.23-.14-.29-.22-.06-.08-.09-.16-.09-.25,0-.06,0-.12.02-.18ZM236.76,63.99c.1-.06.22-.08.36-.08s.28.04.4.11c.13.07.24.18.34.31.1.13.18.29.23.47.06.18.09.38.09.59,0,.15-.02.28-.07.41-.05.12-.12.24-.2.33-.08.09-.18.17-.29.22-.24.12-.51.1-.72-.02-.12-.07-.22-.16-.3-.29-.09-.12-.15-.27-.2-.44-.05-.17-.07-.35-.07-.54,0-.16.02-.32.05-.46.03-.14.08-.26.15-.36.06-.1.15-.18.25-.24Z" class="cls-1"/>
      </g>
    </g>
  </g>
</svg>