<?xml version="1.0" encoding="UTF-8"?>
<svg id="Calque_1" data-name="Calque 1" xmlns="http://www.w3.org/2000/svg" viewBox="0 0 1000 300">
  <defs>
    <style>
      .cls-1 {
        fill: #252c2f;
      }

      .cls-2 {
        fill: #0a7eeb;
        fill-rule: evenodd;
      }
    </style>
  </defs>
  <path class="cls-2" d="M149.8865,197.5352c-2.0655-2.706-5.316-4.462-8.9805-4.462-3.6615,.001-6.908,1.752-8.974,4.454l-28.708-16.569c.3935-1.148,.6175-2.374,.6175-3.655,.0015-5.283-3.636-9.712-8.5375-10.949l-.0025-31.995c4.901-1.237,8.54-5.6645,8.54-10.946,0-1.437-.279-2.805-.7685-4.07l28.739-16.2396c2.0605,2.786,5.3575,4.6021,9.086,4.601,3.7325,0,7.0335-1.8214,9.0925-4.613l28.754,16.241c-.4925,1.2676-.7725,2.6406-.7725,4.0806,.001,5.2855,3.6455,9.717,8.552,10.9485l.0025,31.987c-4.909,1.232-8.5545,5.6645-8.5545,10.9545,0,1.282,.2255,2.51,.619,3.66l-28.7045,16.572h0Zm50.6925-74.125c0-6.238-5.065-11.3035-11.3035-11.302-3.1225,0-5.9515,1.27-7.9985,3.321l-29.3515-16.5785c.175-.79,.2735-1.608,.2735-2.4515,0-6.238-5.0655-11.302-11.3035-11.302-6.2385,.001-11.3025,5.0665-11.3025,11.305,0,.847,.1015,1.669,.2775,2.463l-29.326,16.572c-2.047-2.055-4.879-3.329-8.0055-3.329-6.2395-.0015-11.3035,5.064-11.305,11.302,0,5.5965,4.0795,10.2365,9.4225,11.1345l.004,31.6225c-5.3445,.897-9.425,5.5365-9.4265,11.133,0,6.24,5.064,11.305,11.3025,11.305,3.288,0,6.2395-1.414,8.3065-3.6585l29.085,16.7855c-.2045,.85-.3245,1.733-.3245,2.646,0,6.238,5.0655,11.3035,11.304,11.3026,6.238,0,11.3035-5.0655,11.3025-11.3055,0-.907-.119-1.785-.322-2.6325l29.086-16.792c2.066,2.2415,5.0175,3.6545,8.303,3.6545,6.238,0,11.3035-5.065,11.302-11.305,0-5.591-4.0725-10.2265-9.4075-11.13l-.0025-31.627c5.3375-.903,9.4115-5.5405,9.41-11.133"/>
  <path class="cls-2" d="M140.9225,240.2397l-78.1525-45.143-.029-90.207,78.1655-45.1285,78.1505,45.1055,.008,90.238-78.1425,45.135h0ZM231.795,101.1878c0-2.2766-1.2155-4.3781-3.1865-5.515l-84.5185-48.783c-1.9695-1.138-4.398-1.138-6.3675,0L53.185,95.6968c-1.972,1.1385-3.185,3.2415-3.185,5.518l.0335,97.562c.001,2.274,1.214,4.3755,3.1835,5.514l84.52,48.8205c.986,.5685,2.086,.8525,3.1855,.8525,1.1005,0,2.2-.284,3.1865-.8525l84.5105-48.815c1.971-1.1385,3.1835-3.2415,3.1835-5.5154l-.008-97.593h0Z"/>
  <path class="cls-1" d="M453.315,199.2557l-26.739-37.5255c1.55,.2935,11.366-3.9145,16.237-11.5645,4.604-7.231,5.979-15.8325,5.849-22.7039-.2605-13.9695-4.651-34.564-45.0385-34.5595l-39.047,.0025,.0095,106.3585,23.5815-.0025-.0025-35.6535h12.4905l25.3665,35.651,27.293-.0025h0Zm-28.7345-71.46c.0025,6.819-3.323,14.637-19.953,14.6395h-16.4645l-.0025-29.937,16.4645-.0025c16.63-.0026,19.9555,8.3125,19.9555,15.3"/>
  <polygon class="cls-1" points="352.769 112.1278 352.769 92.5343 264.075 92.5412 264.0775 112.1322 296.632 112.1303 296.639 198.8948 319.8895 198.8948 319.8825 112.1303 352.769 112.1278 352.769 112.1278"/>
  <polygon class="cls-1" points="843.5709 199.2123 843.5615 92.8537 820.7991 92.8562 820.8035 163.0407 782.9204 92.8583 755.4405 92.8608 755.45 199.2192 778.7405 199.2192 778.736 128.7013 817.13 199.2147 843.5709 199.2123 843.5709 199.2123"/>
  <path class="cls-1" d="M950,167.9428c-.0025-41.185-63.995-26.943-65.493-44.231-.6655-7.6265,3.6565-12.8785,19.113-12.8811,16.623,.0096,20.28,6.9516,21.61,17.9581l23.44-.0025c-.3365-21.674-10.81-38.2686-44.2195-38.264-33.066,.0025-43.857,15.411-43.36,34.375,.999,38.813,68.1326,21.6905,65.806,45.0785-.6655,6.781-5.818,11.527-20.6115,11.527-16.0075-.007-22.3675-7.276-23.6955-17.236h-23.783c.819,24.2115,14.1475,37.381,48.146,37.3785,33.078-.0045,43.0499-17.7825,43.0475-33.7025"/>
  <path class="cls-1" d="M490.701,163.5552l15.728-53.069,15.4371,53.067-31.165,.002h0Zm30.249-71.022l-29.2005,.002-34.335,106.3635,22.5425-.0025,5.5225-17.6645,41.608-.0025,5.371,17.662,16.27-.002,4.36-6.4195-32.1385-99.9365h0Z"/>
  <polygon class="cls-1" points="743.4915 198.8908 743.4895 179.2998 686.025 179.3043 686.025 154.1817 735.0205 154.1793 735.0205 135.0852 686.0225 135.0877 686.02 112.1308 743.4845 112.1258 743.482 92.5323 662.6015 92.5392 662.611 193.4042 666.3865 198.8977 743.4915 198.8908 743.4915 198.8908"/>
  <polygon class="cls-1" points="657.3385 198.9137 620.7835 142.4152 651.6675 92.5558 625.816 92.5578 607.316 124.3033 588.598 92.5628 562.7465 92.5647 594.0205 142.4172 557.307 198.9232 582.908 198.9212 607.3205 159.8667 631.906 198.9163 657.3385 198.9137 657.3385 198.9137"/>
</svg>